<?xml version="1.0"?>
<svg xmlns="http://www.w3.org/2000/svg" xmlns:xlink="http://www.w3.org/1999/xlink" version="1.1" id="Capa_1" x="0px" y="0px" viewBox="0 0 512 512" style="enable-background:new 0 0 512 512;" xml:space="preserve" width="512px" height="512px" class=""><g><circle style="fill:#0E2A47" cx="256" cy="256" r="256" data-original="#FDE57F" class="active-path" data-old_color="#FDE57F"/><path style="fill:#DAECF7" d="M446.049,15.014H169.454c-18.82,6.76-36.615,15.661-53.099,26.411h356.497  C472.853,26.839,460.852,15.014,446.049,15.014z" data-original="#DAECF7" class=""/><path style="fill:#B2D9ED" d="M173.05,458.251c-0.882,7.464-4.867,15.248-10.928,19.469l-8.42,5.864c48.891,0,112.72,0,161.428,0  l-8.42-5.864c-6.061-4.221-10.047-12.005-10.929-19.47l-4.718-40.977H177.768L173.05,458.251z" data-original="#B2D9ED" class=""/><path style="fill:#92D1EA" d="M223.544,458.251l3.041-40.978h-48.818l-4.718,40.978c-0.882,7.464-4.867,15.248-10.928,19.469  l-8.42,5.864c17.647,0,37.244,0,57.371,0C213.284,480.262,222.21,475.766,223.544,458.251z" data-original="#92D1EA" class=""/><path style="fill:#DAECF7" d="M425.165,153c-26.337,0-47.687-21.038-47.687-46.988c0,25.95-21.351,46.988-47.688,46.988  s-47.687-21.038-47.687-46.988c0,25.95-21.351,46.988-47.688,46.988s-47.687-21.038-47.687-46.988  c0,25.95-21.351,46.988-47.688,46.988s-47.687-21.038-47.687-46.988c0,34.549-36.489,56.989-67.794,42.611  c-39.567,85.506-30.144,191.436,34.935,270.26h380.632c16.302,0,29.639-13.142,29.639-29.205V125.042  C461.351,141.509,444.625,153,425.165,153z" data-original="#DAECF7" class=""/><path style="fill:#B2D9ED" d="M62.065,389.678V149.371c-12.272,5.062-26.32,4.85-38.506-0.748  c-39.567,85.506-30.144,191.436,34.935,270.26h33.21C75.403,418.883,62.065,405.741,62.065,389.678z" data-original="#B2D9ED" class=""/><path style="fill:#DAECF7" d="M346.349,497.262L346.349,497.262c0-8.106-6.731-14.738-14.957-14.738  c-204.971,0-193.487-0.019-194.654,0.035C172.355,501.348,212.931,512,256,512c27.259,0,53.536,0,75.392,0  C339.618,512,346.349,505.368,346.349,497.262z" data-original="#DAECF7" class=""/><path style="fill:#B2D9ED" d="M198.237,497.262L198.237,497.262c0-8.106,6.731-14.738,14.957-14.738  c-83.323,0-75.283-0.02-76.457,0.035c20.088,10.596,41.754,18.604,64.554,23.573C199.385,503.658,198.237,500.59,198.237,497.262z" data-original="#B2D9ED" class=""/><path style="fill:#5F7D95" d="M21.979,359.901h446.786V124.042c-7.414,16.466-24.14,27.958-43.6,27.958  c-26.337,0-47.687-21.038-47.687-46.988c0,25.95-21.351,46.988-47.688,46.988s-47.687-21.038-47.687-46.988  c0,25.95-21.351,46.988-47.688,46.988s-47.687-21.038-47.687-46.988c0,25.95-21.351,46.988-47.688,46.988  s-47.687-21.038-47.687-46.988c0,34.286-36.069,56.841-67.407,42.783C-6.64,213.275-8.575,291.187,21.979,359.901z" data-original="#5F6AB9" class="" data-old_color="#5F6AB9"/><path style="fill:#445A6B" d="M21.98,359.901h40.085v-210.53c-12.249,5.053-26.292,4.858-38.496-0.743  C-6.879,214.412-8.265,292.105,21.98,359.901z" data-original="#524FA1" class="" data-old_color="#524FA1"/><path style="fill:#92D1EA" d="M234.411,397.922c-4.247,0-7.612-3.419-7.612-7.5c0-4.68,4.352-8.265,9.104-7.351  c3.663,0.756,6.12,3.832,6.12,7.351C242.023,394.563,238.636,397.922,234.411,397.922z" data-original="#92D1EA" class=""/><path style="fill:#DAECF7" d="M35.084,330.426h398.663c2.793,0,5.058-2.231,5.058-4.984V150.043  c-30.561,8.981-61.327-13.607-61.327-45.031c0,25.95-21.351,46.988-47.688,46.988c-26.337,0-47.687-21.037-47.687-46.988  c0,25.95-21.351,46.988-47.688,46.988s-47.687-21.037-47.687-46.988c0,25.95-21.351,46.988-47.688,46.988  s-47.687-21.037-47.687-46.988c0,31.468-30.814,53.998-61.327,45.031v175.399C30.026,328.194,32.291,330.426,35.084,330.426z" data-original="#DAECF7" class=""/><path style="fill:#B2D9ED" d="M30.026,151.031v174.411c0,2.752,2.265,4.984,5.058,4.984h26.981V149.371  C52.259,153.416,40.936,154.242,30.026,151.031z" data-original="#B2D9ED" class=""/><path style="fill:#BBEF89" d="M169.723,295.812h-61.365c-10.847,0-19.64-8.793-19.64-19.64l0,0c0-10.847,8.793-19.64,19.64-19.64  h61.365c10.847,0,19.64,8.793,19.64,19.64l0,0C189.363,287.019,180.57,295.812,169.723,295.812z" data-original="#BBEF89" class=""/><path style="fill:#7DD776" d="M169.723,276.173h-61.365c-7.265,0-13.594-3.955-16.991-9.82c-1.675,2.891-2.649,6.238-2.649,9.82  l0,0c0,10.847,8.793,19.64,19.64,19.64h61.365c10.847,0,19.64-8.793,19.64-19.64l0,0c0-3.582-0.974-6.929-2.649-9.82  C183.317,272.218,176.988,276.173,169.723,276.173z" data-original="#7DD776" class=""/><path style="fill:#14C0EB" d="M139.041,256.533H108.65c-11.008,0-19.932,8.793-19.932,19.64l0,0c0,10.847,8.924,19.64,19.932,19.64  h30.391V256.533z" data-original="#14C0EB" class=""/><path style="fill:#00ADDC" d="M108.358,276.173c-7.252,0-13.569-3.941-16.971-9.788c-7.577,12.942,1.852,29.428,17.263,29.428  h30.391v-19.64L108.358,276.173L108.358,276.173z" data-original="#00ADDC" class=""/><path style="fill:#BBEF89" d="M118.624,253.896l52.636-29.943c9.533-5.423,12.799-17.431,7.296-26.823l-0.001-0.002  c-5.505-9.394-17.698-12.613-27.233-7.189l-52.636,29.943c-9.533,5.423-12.799,17.431-7.296,26.823l0.001,0.002  C96.895,256.102,109.088,259.32,118.624,253.896z" data-original="#BBEF89" class=""/><path style="fill:#7DD776" d="M109.685,236.891l52.636-29.943c6.026-3.428,13.109-3.396,18.899-0.543  c-0.086-3.16-0.948-6.345-2.665-9.275l-0.001-0.002c-5.505-9.394-17.698-12.613-27.233-7.188l-52.636,29.943  c-9.533,5.423-12.799,17.431-7.296,26.823l0.001,0.002c2.026,3.458,4.962,6.07,8.334,7.732  C99.535,247.47,103.127,240.622,109.685,236.891z" data-original="#7DD776" class=""/><path style="fill:#14C0EB" d="M125.006,204.909l26.319-14.972c9.533-5.423,21.724-2.205,27.228,7.189l0,0  c5.504,9.394,2.238,21.405-7.296,26.828l-26.319,14.972L125.006,204.909z" data-original="#14C0EB" class=""/><path style="fill:#00ADDC" d="M151.321,189.939l-26.315,14.97l10.225,17.45l27.09-15.411c6.025-3.428,13.108-3.396,18.898-0.544  c-0.09-3.307-1.065-6.544-2.665-9.276l0,0C173.049,187.734,160.856,184.515,151.321,189.939z" data-original="#00ADDC" class=""/><g>
	<path style="fill:#FFFFFF" d="M294.56,205.669h-59.389c-4.204,0-7.612-3.357-7.612-7.5s3.408-7.5,7.612-7.5h59.389   c4.204,0,7.612,3.357,7.612,7.5S298.764,205.669,294.56,205.669z" data-original="#FFFFFF" class=""/>
	<path style="fill:#FFFFFF" d="M389.47,236.714H235.171c-4.204,0-7.612-3.357-7.612-7.5s3.408-7.5,7.612-7.5H389.47   c4.204,0,7.612,3.357,7.612,7.5S393.674,236.714,389.47,236.714z" data-original="#FFFFFF" class=""/>
	<path style="fill:#FFFFFF" d="M389.47,267.759H235.171c-4.204,0-7.612-3.357-7.612-7.5s3.408-7.5,7.612-7.5H389.47   c4.204,0,7.612,3.357,7.612,7.5S393.674,267.759,389.47,267.759z" data-original="#FFFFFF" class=""/>
	<path style="fill:#FFFFFF" d="M389.47,298.805H235.171c-4.204,0-7.612-3.357-7.612-7.5s3.408-7.5,7.612-7.5H389.47   c4.204,0,7.612,3.357,7.612,7.5S393.674,298.805,389.47,298.805z" data-original="#FFFFFF" class=""/>
</g><path style="fill:#14C0EB" d="M20.289,155.963c31.423,17.455,71.064-4.784,71.064-40.95V59.986  C60.702,85.759,36.175,118.578,20.289,155.963z" data-original="#14C0EB" class=""/><path style="fill:#BBEF89" d="M91.353,115.012c0,25.95,21.351,46.988,47.687,46.988c26.337,0,47.688-21.038,47.688-46.988V41.425  h-70.372c-8.717,5.685-17.065,11.886-25.003,18.561V115.012z" data-original="#BBEF89" class=""/><path style="fill:#7DD776" d="M139.04,115.012V41.425h-22.685c-8.717,5.685-17.065,11.886-25.003,18.561v55.026  c0,25.95,21.351,46.988,47.687,46.988c8.689,0,16.828-2.301,23.844-6.302C148.635,147.573,139.04,132.401,139.04,115.012z" data-original="#7DD776" class=""/><path style="fill:#14C0EB" d="M186.728,41.425v73.587c0,25.95,21.351,46.988,47.687,46.988s47.688-21.037,47.688-46.988V41.425  H186.728z" data-original="#14C0EB" class=""/><path style="fill:#00ADDC" d="M234.415,115.012V41.425h-47.688v73.587c0,25.95,21.351,46.988,47.687,46.988  c8.689,0,16.828-2.301,23.844-6.302C244.01,147.573,234.415,132.401,234.415,115.012z" data-original="#00ADDC" class=""/><path style="fill:#BBEF89" d="M282.103,41.425v73.587c0,25.95,21.351,46.988,47.687,46.988c26.337,0,47.687-21.037,47.687-46.988  V41.425H282.103z" data-original="#BBEF89" class=""/><path style="fill:#7DD776" d="M329.79,115.012V41.425h-47.687v73.587c0,25.95,21.351,46.988,47.687,46.988  c8.689,0,16.828-2.301,23.844-6.302C339.384,147.573,329.79,132.401,329.79,115.012z" data-original="#7DD776" class=""/><path style="fill:#14C0EB" d="M377.478,41.425v73.587c0,25.95,21.351,46.988,47.688,46.988c26.337,0,47.687-21.037,47.687-46.988  V41.425H377.478z" data-original="#14C0EB" class=""/><path style="fill:#00ADDC" d="M425.165,115.012V41.425h-47.688v73.587c0,36.335,40.032,58.648,71.531,40.686  C434.759,147.573,425.165,132.401,425.165,115.012z" data-original="#00ADDC" class=""/><path style="fill:#B2D9ED" d="M478.96,33.925H128.561c-7.977,4.588-15.673,9.607-23.079,15H478.96c4.204,0,7.612-3.357,7.612-7.5  S483.164,33.925,478.96,33.925z" data-original="#B2D9ED" class=""/><path style="fill:#00ADDC" d="M20.289,155.963c31.423,17.455,71.064-4.784,71.064-40.95V98.096H54.489  C40.692,115.678,29.149,135.113,20.289,155.963z" data-original="#00ADDC" class=""/><path style="fill:#029DCC" d="M48.879,115.012v-9.485c-11.336,15.578-20.961,32.48-28.591,50.436  c15.267,8.48,34.589,8.176,49.828-1.854C57.314,145.683,48.879,131.32,48.879,115.012z" data-original="#029DCC" class=""/><path style="fill:#7DD776" d="M91.353,98.096v16.916c0,25.95,21.351,46.988,47.687,46.988c26.337,0,47.688-21.037,47.688-46.988  V98.096H91.353z" data-original="#7DD776" class=""/><path style="fill:#3EBE64" d="M139.04,162c0.005,0,0.01,0,0.015,0c9.858-0.002,16.231-2.43,23.829-6.302  c-14.25-8.125-23.844-23.297-23.844-40.686V98.096H91.353v16.916C91.353,140.812,112.584,162,139.04,162z" data-original="#3EBE64" class="" data-old_color="#3EBE64"/><path style="fill:#00ADDC" d="M186.728,98.096v16.916c0,25.95,21.351,46.988,47.687,46.988s47.688-21.037,47.688-46.988V98.096  H186.728z" data-original="#00ADDC" class=""/><path style="fill:#029DCC" d="M234.415,162c0.005,0,0.01,0,0.015,0c9.724-0.002,16.232-2.431,23.829-6.302  c-14.249-8.126-23.844-23.297-23.844-40.686V98.096h-47.688v16.916C186.728,140.765,207.895,162,234.415,162z" data-original="#029DCC" class=""/><path style="fill:#7DD776" d="M282.103,98.096v16.916c0,25.95,21.351,46.988,47.687,46.988c26.337,0,47.687-21.037,47.687-46.988  V98.096H282.103z" data-original="#7DD776" class=""/><path style="fill:#3EBE64" d="M329.79,162c0.005,0,0.01,0,0.015,0c9.674-0.002,16.202-2.416,23.829-6.302  c-14.25-8.126-23.844-23.297-23.844-40.686V98.096h-47.687v16.916C282.103,140.812,303.334,162,329.79,162z" data-original="#3EBE64" class="" data-old_color="#3EBE64"/><path style="fill:#00ADDC" d="M377.478,98.096v16.916c0,25.95,21.351,46.988,47.688,46.988c26.337,0,47.687-21.037,47.687-46.988  V98.096H377.478z" data-original="#00ADDC" class=""/><path style="fill:#029DCC" d="M449.009,155.698c-14.25-8.126-23.844-23.297-23.844-40.686V98.096h-47.688v16.916  C377.478,147.31,411.713,174.7,449.009,155.698z" data-original="#029DCC" class=""/></g> </svg>
